<?xml version="1.0" standalone="no"?>
<!DOCTYPE svg PUBLIC "-//W3C//DTD SVG 20010904//EN"
 "http://www.w3.org/TR/2001/REC-SVG-20010904/DTD/svg10.dtd">
<svg version="1.0" xmlns="http://www.w3.org/2000/svg"
 width="1465.000000pt" height="1419.000000pt" viewBox="0 0 1465.000000 1419.000000"
 preserveAspectRatio="xMidYMid meet">

<g transform="translate(0.000000,1419.000000) scale(0.100000,-0.100000)"
fill="#000000" stroke="none">
<path d="M5758 12883 l-3 -948 -940 -3 -940 -2 -6 -128 c-9 -176 -10 -1186 -2
-1789 l6 -503 944 0 943 0 0 -940 0 -940 1190 0 1190 0 1 893 c0 490 0 913 -1
940 l-1 47 910 0 c717 0 912 3 918 13 11 16 16 2046 6 2250 l-8 158 -896 -1
c-493 0 -904 2 -913 6 -15 6 -16 86 -16 950 l0 944 -1190 0 -1190 0 -2 -947z"/>
<path d="M11353 8540 c-18 -11 -79 -44 -135 -74 -57 -29 -119 -62 -138 -73
-19 -11 -66 -37 -105 -58 -93 -51 -229 -132 -345 -206 -52 -33 -108 -67 -125
-75 -16 -8 -85 -50 -153 -94 -68 -44 -126 -80 -129 -80 -4 0 -14 -6 -22 -14
-9 -7 -41 -26 -71 -42 -30 -16 -93 -53 -140 -81 -47 -29 -107 -64 -135 -79
-27 -14 -57 -32 -66 -40 -8 -8 -19 -14 -23 -14 -5 0 -58 -30 -120 -66 -131
-77 -137 -81 -241 -140 -44 -25 -92 -53 -107 -62 -39 -25 -184 -110 -248 -145
-30 -16 -66 -38 -80 -47 -20 -14 -106 -66 -200 -120 -8 -5 -87 -51 -175 -103
-88 -52 -176 -104 -195 -115 -84 -47 -116 -66 -131 -79 -9 -8 -32 -22 -50 -32
-19 -10 -71 -41 -117 -69 -46 -29 -85 -52 -87 -52 -2 0 -52 -30 -112 -67 -111
-68 -139 -84 -209 -125 -22 -12 -96 -57 -163 -98 -115 -71 -162 -98 -221 -132
-67 -39 -104 -61 -218 -132 -68 -42 -127 -76 -130 -76 -4 0 -18 -9 -32 -20
-14 -11 -40 -20 -57 -20 -36 0 -170 61 -193 88 -8 10 -30 24 -49 31 -18 8 -51
29 -73 48 -23 19 -62 46 -87 60 -25 14 -80 45 -121 68 -41 23 -101 58 -133 76
-60 35 -118 67 -242 133 -38 21 -77 44 -86 52 -8 8 -18 14 -22 14 -3 0 -30 14
-59 32 -29 17 -80 46 -113 63 -103 55 -180 98 -190 105 -5 4 -27 17 -47 29
-21 12 -55 30 -75 42 -20 11 -57 32 -82 46 -25 13 -62 33 -81 45 -19 11 -53
30 -75 41 -22 12 -42 25 -45 29 -3 3 -35 22 -73 42 -37 20 -97 52 -134 72 -38
20 -72 39 -78 44 -5 4 -30 19 -55 32 -25 14 -63 35 -85 48 -22 12 -78 43 -125
68 -47 25 -103 57 -125 72 -22 14 -53 32 -70 40 -16 8 -41 22 -55 31 -14 9
-65 37 -114 64 -49 26 -112 61 -140 78 -128 76 -284 157 -303 157 -7 0 -32 15
-56 33 -24 18 -111 70 -193 114 -82 44 -166 90 -187 102 -21 12 -86 46 -145
77 -59 31 -123 68 -142 83 -19 15 -51 33 -70 41 -19 8 -37 17 -40 21 -9 12
-80 49 -95 49 -8 0 -15 4 -15 9 0 5 -33 26 -72 46 -40 21 -75 41 -78 44 -3 3
-18 13 -35 22 -39 21 -262 139 -297 156 -15 8 -30 18 -33 23 -6 10 -115 64
-118 59 -1 -2 -9 -17 -18 -34 -8 -16 -20 -39 -27 -50 -16 -29 -82 -175 -82
-181 0 -6 -47 -116 -90 -209 -15 -33 -32 -76 -39 -95 -6 -19 -36 -110 -66
-201 -30 -91 -55 -174 -55 -185 0 -11 -4 -24 -9 -29 -5 -6 -14 -32 -20 -60 -5
-27 -17 -75 -26 -105 -13 -45 -45 -190 -60 -275 -8 -40 -35 -201 -39 -230 -10
-67 -35 -193 -48 -240 -13 -49 -14 -50 -48 -47 -19 1 -37 6 -40 10 -14 19
-520 264 -534 259 -9 -4 -16 -19 -17 -34 0 -15 -4 -62 -9 -103 -11 -87 -43
-528 -43 -580 0 -68 13 -335 18 -355 2 -11 9 -87 15 -170 6 -82 17 -190 25
-240 8 -49 20 -121 26 -160 6 -38 17 -99 25 -135 8 -36 19 -87 24 -115 5 -27
14 -70 20 -95 6 -25 15 -65 20 -90 16 -86 82 -312 144 -494 25 -72 53 -160 62
-196 9 -36 23 -72 30 -80 7 -9 23 -38 35 -65 12 -28 32 -72 44 -100 12 -27 26
-61 30 -73 4 -13 26 -63 50 -110 24 -48 54 -112 68 -143 14 -31 30 -60 36 -63
18 -12 61 -103 61 -130 0 -16 9 -32 24 -41 13 -9 47 -55 75 -103 29 -48 57
-96 64 -107 64 -107 292 -442 334 -492 29 -34 53 -68 53 -75 0 -7 21 -33 48
-58 26 -25 68 -70 92 -99 45 -55 52 -63 125 -143 22 -23 73 -80 113 -125 81
-91 131 -143 138 -143 3 0 67 -55 142 -123 178 -159 248 -217 261 -217 6 0 11
-4 11 -8 0 -5 36 -35 81 -68 45 -32 86 -63 93 -69 34 -29 135 -104 163 -120
18 -11 33 -22 33 -26 0 -3 10 -10 23 -16 12 -6 44 -27 71 -48 27 -20 86 -55
130 -78 45 -22 105 -55 134 -74 30 -19 83 -47 118 -64 35 -17 64 -35 64 -40 0
-5 7 -9 15 -9 14 0 85 -36 155 -79 19 -11 40 -21 47 -21 7 0 29 -11 49 -25 20
-14 44 -25 53 -25 14 0 43 -12 131 -56 14 -6 41 -17 60 -22 46 -14 124 -44
180 -70 52 -24 180 -70 228 -82 18 -4 38 -12 45 -17 7 -5 38 -15 69 -22 32 -7
60 -17 63 -22 4 -5 19 -9 34 -9 15 0 31 -3 35 -7 3 -4 14 -8 24 -9 9 -1 34 -7
55 -13 98 -28 169 -46 247 -61 147 -29 200 -40 240 -50 25 -6 70 -15 100 -19
30 -4 72 -16 93 -25 42 -18 119 -29 374 -50 385 -32 1113 -3 1438 59 39 7 106
18 150 25 44 7 129 27 188 46 60 19 127 34 149 34 22 0 59 5 82 11 99 25 394
114 431 129 48 20 244 93 290 108 28 9 52 20 53 24 2 4 8 8 13 8 9 0 201 83
231 100 10 6 25 10 33 10 8 0 15 5 15 10 0 6 5 10 10 10 15 0 134 58 265 130
61 33 128 69 150 80 22 11 58 31 80 44 22 13 56 27 76 30 20 3 49 18 64 32 16
14 45 36 66 48 47 27 86 55 116 83 13 13 26 23 29 23 4 0 75 48 144 99 19 14
43 33 53 43 10 10 21 18 25 18 4 0 21 12 37 26 17 14 50 42 74 62 23 20 48 42
55 47 6 6 21 15 33 20 12 6 55 42 95 80 40 39 107 99 148 134 41 36 84 77 95
91 11 15 55 62 98 105 71 72 137 155 137 174 0 4 24 32 53 63 107 114 122 132
285 353 45 61 88 117 95 126 27 32 105 146 142 209 21 36 42 67 45 70 9 6 57
83 58 93 1 4 8 17 15 30 8 12 35 56 60 98 26 42 47 82 47 88 0 6 4 11 9 11 4
0 16 21 26 48 10 26 25 56 35 67 18 21 70 130 70 147 0 6 14 30 30 55 17 24
30 51 30 59 0 7 3 14 8 14 4 0 16 24 26 53 16 47 73 182 111 262 8 17 17 44
21 60 4 17 11 35 15 41 5 6 13 35 19 65 5 30 23 86 39 124 16 39 34 88 39 110
14 52 60 211 72 250 5 17 16 64 24 105 9 41 20 91 26 110 13 46 29 135 41 235
5 44 14 103 19 130 8 42 26 189 45 375 13 121 17 645 6 780 -17 216 -40 368
-59 394 -5 6 -14 44 -21 84 -14 78 -22 85 -64 52 -14 -11 -29 -20 -33 -20 -4
0 -22 -11 -40 -25 -19 -14 -94 -66 -166 -114 -73 -48 -142 -98 -152 -109 -11
-12 -24 -22 -31 -22 -6 0 -26 -11 -45 -25 -45 -33 -58 -32 -74 8 -17 39 -56
221 -56 260 0 16 -4 36 -9 46 -5 9 -12 35 -15 57 -2 21 -9 53 -15 69 -30 93
-51 173 -51 198 0 16 -6 41 -14 55 -8 15 -32 81 -52 147 -41 131 -110 314
-125 329 -5 6 -9 22 -9 37 0 14 -9 38 -20 52 -11 14 -20 31 -20 39 0 8 -4 18
-9 24 -5 5 -16 34 -26 64 -10 30 -23 66 -30 80 -25 48 -74 156 -96 212 -12 31
-33 69 -46 85 -14 15 -34 45 -44 66 -22 42 -31 45 -76 17z m-253 -947 c5 -16
16 -41 25 -56 8 -16 15 -42 15 -58 0 -17 6 -42 14 -57 21 -41 56 -148 56 -172
0 -24 17 -99 36 -160 8 -25 14 -56 14 -71 0 -14 4 -29 10 -35 5 -5 14 -47 20
-94 5 -47 14 -105 19 -130 5 -25 7 -48 5 -52 -3 -4 1 -18 7 -30 7 -13 16 -45
21 -73 4 -27 12 -70 17 -95 6 -25 10 -79 10 -120 l0 -75 -47 -34 c-26 -19 -59
-39 -74 -45 -16 -6 -28 -14 -28 -18 0 -4 -5 -8 -12 -8 -6 0 -25 -10 -42 -23
-17 -13 -44 -30 -61 -39 -51 -26 -100 -53 -105 -58 -9 -10 -65 -44 -105 -66
-65 -34 -118 -65 -150 -88 -16 -11 -50 -32 -76 -46 -47 -25 -100 -56 -194
-113 -27 -16 -68 -40 -90 -52 -22 -13 -65 -39 -95 -59 -30 -20 -59 -36 -65
-36 -6 0 -21 -10 -35 -22 -14 -13 -56 -38 -95 -57 -38 -19 -84 -45 -101 -58
-17 -12 -34 -23 -38 -23 -3 0 -35 -17 -69 -38 -35 -21 -70 -42 -77 -45 -8 -4
-46 -28 -85 -52 -38 -25 -86 -53 -105 -62 -19 -10 -44 -26 -54 -35 -11 -10
-24 -18 -29 -18 -4 0 -28 -13 -52 -30 -24 -16 -46 -30 -50 -30 -4 0 -26 -13
-50 -30 -24 -16 -47 -30 -51 -30 -4 0 -22 -11 -40 -25 -18 -14 -37 -25 -43
-25 -9 0 -40 -18 -179 -102 -35 -21 -67 -38 -73 -38 -5 0 -9 -4 -9 -8 0 -9
-162 -95 -186 -98 -8 -1 -14 1 -14 5 0 4 -15 12 -34 19 -18 7 -41 21 -51 32
-10 11 -25 20 -33 20 -16 0 -73 38 -85 57 -4 7 -16 13 -25 14 -9 0 -30 9 -47
19 -16 10 -57 33 -90 50 -33 18 -79 45 -103 61 -24 16 -48 29 -53 29 -14 0
-73 33 -77 43 -2 4 -12 7 -23 7 -10 0 -19 4 -19 9 0 5 -8 11 -17 15 -10 3 -47
24 -83 46 -36 23 -101 59 -145 82 -44 22 -99 54 -122 69 -23 16 -48 29 -56 29
-8 0 -41 17 -74 38 -32 20 -72 44 -89 52 -52 28 -38 66 38 104 28 14 56 26 60
26 5 0 34 16 64 35 30 19 58 35 63 35 4 0 16 9 26 20 10 11 21 20 25 20 11 0
262 139 280 155 9 8 19 15 23 15 3 0 26 14 50 30 25 17 50 30 57 30 6 0 31 14
55 30 24 17 47 30 50 30 4 0 46 24 93 53 48 29 103 60 122 69 19 9 50 28 69
42 19 14 39 26 43 26 5 0 18 8 29 18 10 10 54 36 97 57 42 22 103 56 134 77
31 21 64 38 72 38 9 0 16 4 16 8 0 5 12 15 28 23 15 7 41 23 57 35 17 12 57
36 90 54 33 18 78 43 100 56 22 13 54 30 70 39 17 8 46 28 65 45 19 16 40 30
47 30 6 0 25 11 41 25 17 14 37 25 46 25 9 0 26 9 38 20 12 11 28 20 35 20 7
0 13 5 13 10 0 6 5 10 11 10 7 0 35 15 64 34 28 19 71 45 96 58 24 13 63 36
87 52 24 15 72 41 106 57 35 17 72 38 82 48 27 24 162 104 204 121 19 7 44 21
55 30 11 9 37 24 57 34 20 9 43 22 50 29 8 6 29 20 48 31 19 10 69 36 110 59
41 22 87 46 101 54 15 7 32 20 39 28 7 8 16 15 21 15 11 0 169 97 194 119 54
49 101 54 115 14z m-8503 -54 c48 -28 112 -64 141 -80 29 -17 74 -43 100 -59
26 -16 83 -48 127 -71 44 -23 87 -47 95 -54 16 -14 120 -71 205 -113 27 -13
75 -42 106 -63 32 -21 60 -39 63 -39 3 0 34 -17 68 -38 35 -20 86 -49 113 -62
28 -14 51 -28 53 -32 2 -4 41 -26 87 -48 46 -22 97 -51 112 -63 15 -12 42 -29
58 -37 17 -8 41 -22 55 -31 40 -26 99 -60 175 -97 39 -19 72 -38 75 -41 3 -3
23 -15 45 -27 65 -34 147 -80 185 -103 19 -11 42 -24 50 -28 8 -3 17 -9 20
-13 8 -10 110 -70 119 -70 4 0 36 -18 70 -40 34 -22 66 -40 71 -40 6 0 10 -4
10 -10 0 -5 5 -10 10 -10 6 0 36 -16 66 -35 30 -19 56 -35 59 -35 2 0 27 -13
55 -30 28 -16 57 -30 65 -30 8 0 15 -4 15 -10 0 -5 4 -10 10 -10 5 0 54 -29
108 -64 54 -35 115 -69 135 -77 20 -7 37 -17 37 -21 0 -4 9 -8 20 -8 11 0 20
-4 20 -8 0 -8 88 -60 215 -127 39 -21 72 -41 75 -45 3 -4 15 -10 27 -14 13 -4
29 -13 36 -19 16 -15 59 -40 117 -69 25 -13 47 -25 50 -28 3 -3 23 -14 45 -26
22 -11 50 -26 63 -32 12 -7 32 -17 43 -23 12 -6 38 -20 58 -31 43 -25 95 -54
171 -95 30 -17 80 -45 110 -63 30 -18 89 -51 130 -73 41 -22 80 -43 86 -48 6
-5 31 -20 55 -33 24 -13 62 -34 84 -46 151 -88 212 -120 227 -120 9 0 19 -4
23 -9 3 -6 18 -16 33 -24 52 -26 127 -70 142 -81 8 -7 40 -25 70 -41 30 -15
80 -45 111 -66 52 -35 75 -49 167 -100 20 -11 41 -25 47 -30 5 -5 17 -9 27 -9
10 0 18 -4 18 -9 0 -5 15 -14 33 -22 17 -7 46 -23 63 -36 17 -13 33 -23 36
-23 3 0 36 -18 73 -41 80 -49 118 -70 205 -116 72 -39 90 -56 90 -89 0 -23
-38 -51 -160 -116 -36 -19 -91 -51 -122 -71 -31 -20 -63 -37 -69 -37 -7 0 -20
-6 -28 -14 -9 -8 -54 -34 -101 -59 -47 -24 -139 -73 -205 -110 -66 -37 -126
-67 -132 -67 -7 0 -13 -3 -13 -8 0 -4 -15 -14 -32 -21 -29 -13 -56 -28 -188
-103 -102 -59 -243 -128 -261 -128 -22 0 -150 56 -159 69 -3 5 -25 19 -50 31
-25 12 -57 31 -72 41 -14 11 -31 19 -37 19 -6 0 -29 11 -51 25 -22 14 -45 25
-50 25 -6 0 -30 13 -53 28 -23 15 -53 33 -67 40 -14 7 -43 23 -65 37 -22 14
-65 38 -95 54 -30 15 -73 38 -95 51 -22 13 -62 35 -90 50 -27 15 -68 37 -90
50 -22 13 -74 41 -115 63 -41 22 -120 65 -175 97 -55 32 -136 77 -180 100 -44
24 -105 56 -135 72 -30 16 -59 33 -65 38 -5 4 -40 24 -77 44 -38 20 -96 51
-131 70 -35 18 -75 40 -88 48 -110 68 -332 192 -396 222 -13 6 -23 14 -23 19
0 4 -4 7 -10 7 -5 0 -44 20 -86 45 -41 25 -77 45 -79 45 -4 0 -163 90 -205
116 -14 8 -41 23 -60 32 -19 9 -37 19 -40 22 -3 3 -30 18 -60 34 -63 34 -66
36 -255 143 -77 44 -160 91 -185 105 -98 55 -125 70 -135 78 -5 4 -30 19 -55
33 -138 75 -174 95 -263 149 -55 32 -100 58 -102 58 -2 0 -54 29 -115 65 -61
36 -114 65 -118 65 -4 0 -23 13 -42 30 -19 16 -38 29 -43 30 -4 0 -42 21 -85
47 -42 26 -97 57 -122 69 -46 23 -85 51 -127 91 -20 19 -23 32 -23 100 0 43 7
114 15 158 9 44 18 132 22 195 3 66 11 124 18 136 7 11 15 60 18 110 2 49 12
123 21 164 10 41 19 93 21 115 2 22 10 60 19 85 9 25 16 55 16 66 0 12 6 44
14 70 8 27 25 86 38 131 17 61 27 83 40 83 9 0 56 -23 105 -51z m9487 -1604
c4 -14 5 -29 2 -33 -2 -4 -9 -86 -16 -182 -6 -96 -20 -229 -31 -295 -11 -66
-24 -161 -29 -211 -11 -109 -33 -226 -60 -314 -34 -111 -60 -204 -66 -238 -4
-18 -11 -35 -15 -38 -5 -3 -9 -14 -9 -24 0 -23 -32 -130 -65 -215 -12 -33 -29
-76 -36 -95 -7 -19 -16 -40 -20 -45 -4 -6 -22 -49 -39 -95 -31 -86 -37 -101
-84 -200 -14 -30 -26 -59 -26 -63 0 -4 -11 -25 -25 -47 -14 -22 -25 -46 -25
-54 0 -18 -114 -240 -140 -274 -11 -13 -17 -28 -14 -33 3 -5 1 -9 -4 -9 -5 0
-14 -12 -21 -27 -11 -25 -99 -161 -111 -173 -3 -3 -14 -22 -25 -43 -11 -21
-29 -48 -40 -60 -11 -11 -33 -40 -50 -63 -74 -105 -248 -310 -397 -468 -67
-71 -88 -94 -165 -179 -23 -26 -47 -47 -53 -47 -5 0 -10 -3 -10 -7 0 -11 -88
-103 -129 -136 -20 -16 -55 -46 -78 -68 -23 -21 -44 -39 -47 -39 -3 0 -16 -10
-28 -22 -24 -23 -81 -72 -128 -108 -14 -11 -64 -52 -112 -90 -48 -39 -92 -70
-98 -70 -14 0 -111 52 -151 81 -15 10 -30 19 -34 19 -3 0 -50 25 -103 56 -157
91 -162 94 -280 161 -62 34 -114 63 -116 63 -2 0 -43 23 -92 51 -49 29 -123
70 -164 92 -41 22 -101 55 -133 73 -32 19 -61 34 -63 34 -3 0 -18 8 -32 18
-15 10 -74 44 -132 74 -58 31 -130 70 -160 88 -30 18 -89 51 -130 73 -41 22
-95 51 -120 65 -25 14 -67 37 -95 52 -27 15 -68 37 -90 50 -22 13 -65 36 -95
53 -30 16 -84 47 -120 67 -102 58 -159 90 -240 134 -67 37 -75 44 -75 71 0 26
9 35 70 73 39 23 77 46 85 49 8 4 33 18 55 33 22 15 63 40 90 55 28 15 59 33
70 39 11 6 39 24 62 39 24 15 45 27 48 27 2 0 29 16 59 35 53 34 185 111 276
162 25 14 52 31 60 37 13 11 73 46 217 127 18 11 48 28 66 38 19 10 69 41 113
68 43 28 100 62 127 76 26 15 68 39 95 54 26 14 58 34 72 44 21 14 184 111
245 145 11 6 44 25 73 42 29 18 55 32 57 32 3 0 29 15 58 34 58 37 105 64 182
106 28 15 106 60 175 102 69 41 150 88 180 105 129 71 156 86 165 93 6 4 27
17 48 29 20 12 53 30 72 41 19 11 51 29 70 40 19 11 51 29 70 40 19 11 74 43
123 72 48 29 101 60 117 68 17 8 32 17 35 20 3 3 16 11 29 18 77 44 118 68
240 143 14 9 42 25 61 36 241 140 424 250 452 272 14 12 31 21 37 21 6 0 49
25 96 55 46 30 87 55 90 55 2 0 29 16 60 35 30 19 65 40 77 45 13 5 57 31 98
59 88 58 134 66 144 26z m-10467 -106 c21 -12 50 -30 65 -40 14 -11 30 -19 35
-19 5 0 27 -13 49 -30 21 -16 43 -30 47 -30 5 0 28 -13 52 -30 24 -16 50 -30
57 -30 7 -1 31 -12 53 -25 22 -14 59 -35 83 -47 23 -12 42 -26 42 -30 0 -4 9
-8 20 -8 12 0 33 -8 47 -17 15 -10 44 -27 65 -38 20 -11 65 -36 100 -56 35
-20 86 -49 113 -64 28 -15 57 -34 66 -41 8 -8 19 -14 23 -14 5 0 28 -13 52
-30 25 -16 57 -33 72 -36 15 -4 36 -14 47 -24 11 -9 56 -36 100 -60 44 -23 92
-51 106 -61 14 -10 63 -37 110 -62 46 -24 108 -58 137 -75 29 -18 55 -32 58
-32 3 0 32 -18 64 -40 32 -22 65 -40 73 -40 8 0 20 -7 27 -16 8 -8 27 -22 44
-29 17 -8 54 -28 81 -44 28 -16 86 -48 130 -71 44 -22 109 -59 144 -80 34 -22
65 -40 67 -40 2 0 27 -14 56 -32 29 -17 76 -43 103 -58 28 -15 84 -47 125 -71
41 -25 98 -56 125 -69 28 -14 55 -30 60 -36 15 -16 82 -55 168 -98 42 -22 77
-42 77 -46 0 -3 33 -22 73 -41 39 -19 74 -37 75 -41 2 -5 8 -8 14 -8 5 0 22
-8 36 -18 15 -10 43 -25 62 -32 19 -8 49 -23 65 -35 17 -12 44 -27 60 -35 17
-8 48 -26 70 -40 79 -49 244 -138 320 -172 17 -7 36 -19 43 -25 7 -7 17 -13
22 -13 5 0 15 -6 22 -12 7 -7 33 -24 58 -37 25 -13 81 -43 125 -66 44 -23 96
-52 115 -64 19 -11 46 -26 60 -32 14 -6 32 -15 40 -20 8 -5 38 -21 65 -35 28
-15 79 -45 115 -67 36 -22 90 -53 120 -70 30 -17 57 -33 60 -37 3 -3 24 -14
48 -23 24 -10 53 -26 64 -37 12 -11 27 -20 34 -20 6 0 17 -7 24 -15 7 -9 29
-23 49 -32 35 -17 47 -25 75 -50 8 -7 33 -20 57 -29 24 -10 46 -20 49 -23 3
-3 21 -14 40 -25 106 -57 145 -80 148 -88 2 -4 10 -8 17 -8 7 0 26 -10 42 -23
15 -13 62 -41 103 -62 41 -21 99 -53 128 -71 29 -19 58 -34 64 -34 6 0 20 -7
30 -17 23 -20 34 -27 139 -82 46 -24 96 -52 111 -62 14 -11 52 -33 83 -49 31
-16 68 -39 82 -50 14 -11 30 -20 36 -20 5 0 32 -14 59 -30 26 -17 55 -30 63
-30 8 0 15 -4 15 -10 0 -5 7 -10 15 -10 9 0 41 -16 71 -35 30 -19 61 -35 70
-35 8 0 17 -7 20 -15 4 -8 13 -15 21 -15 8 0 34 -13 58 -30 24 -16 48 -30 53
-30 16 0 102 -51 102 -61 0 -5 5 -9 12 -9 6 0 26 -11 44 -25 18 -14 38 -25 44
-25 15 0 74 -32 78 -42 2 -5 9 -8 16 -8 7 0 23 -11 36 -24 12 -14 42 -32 66
-40 24 -8 84 -40 134 -70 49 -31 94 -56 100 -56 5 0 10 -4 10 -10 0 -5 11 -10
25 -10 15 0 31 -9 41 -25 9 -14 22 -25 29 -25 7 0 18 -6 24 -13 6 -8 29 -20
51 -27 23 -7 52 -24 66 -37 14 -13 29 -23 35 -23 12 0 48 -21 73 -43 11 -9 25
-17 32 -17 7 0 34 -11 60 -25 26 -14 52 -25 58 -25 21 -1 79 -57 74 -71 -3 -8
-23 -23 -44 -34 -22 -11 -41 -22 -44 -25 -15 -16 -63 -40 -130 -65 -112 -41
-165 -62 -192 -76 -10 -5 -26 -9 -36 -9 -9 0 -42 -9 -72 -21 -30 -12 -75 -28
-100 -37 -25 -8 -64 -24 -87 -34 -24 -10 -49 -18 -57 -18 -8 0 -18 -4 -21 -10
-3 -5 -17 -10 -31 -10 -13 0 -32 -4 -42 -9 -17 -9 -97 -34 -117 -37 -5 0 -17
-3 -25 -6 -88 -32 -153 -52 -195 -58 -27 -4 -72 -14 -98 -23 -27 -9 -79 -19
-115 -23 -37 -3 -71 -9 -77 -12 -5 -3 -21 -7 -35 -8 -14 -2 -59 -7 -100 -13
-275 -37 -604 -69 -735 -71 -97 -1 -556 19 -576 25 -12 4 -69 11 -128 15 -143
12 -272 29 -296 40 -11 5 -40 11 -65 13 -61 6 -170 26 -195 37 -11 4 -49 14
-85 20 -36 6 -74 15 -85 20 -11 4 -51 16 -90 25 -38 9 -117 34 -175 55 -58 21
-134 47 -170 58 -91 29 -127 42 -188 69 -29 12 -57 23 -62 23 -5 0 -24 9 -42
20 -18 11 -42 20 -54 20 -21 0 -52 14 -109 50 -16 10 -37 19 -45 19 -22 2
-380 183 -433 220 -25 17 -48 31 -52 31 -16 0 -246 158 -294 202 -30 27 -82
68 -115 90 -34 23 -84 61 -112 85 -28 24 -55 43 -60 43 -6 0 -26 15 -45 32
-19 18 -53 48 -74 66 -94 78 -313 287 -367 349 -14 17 -33 35 -40 40 -8 4 -41
41 -74 81 -32 40 -80 99 -106 130 -26 31 -69 84 -95 117 -26 33 -52 65 -58 71
-5 6 -17 22 -25 34 -17 25 -115 160 -170 235 -21 28 -45 64 -54 80 -10 17 -35
57 -56 90 -45 68 -53 83 -106 182 -101 188 -155 295 -188 378 -21 50 -48 113
-61 140 -13 28 -34 82 -47 120 -13 39 -25 72 -28 75 -15 15 -123 328 -141 410
-6 25 -19 72 -28 105 -28 91 -39 134 -55 205 -8 36 -22 97 -30 136 -9 39 -18
84 -20 100 -2 16 -9 47 -15 69 -16 63 -41 466 -32 528 2 12 18 8 58 -14z"/>
</g>
</svg>
